<svg width="277" height="361" viewBox="0 0 277 361" fill="none" xmlns="http://www.w3.org/2000/svg">
<path d="M73 289.964L156.785 60.2405L176 7.26382C176 7.26382 111.242 -16.389 91.0894 36.2452M73 289.964C73 289.964 48.8558 359.964 144.999 359.964M73 289.964L215.849 289.965C272.161 290.964 274.999 359.964 274.999 359.964L144.999 359.964M73 289.964C73 289.964 48.8585 359.964 144.999 359.964M144.999 359.964L73.5231 359.964C62.9223 359.964 48.8573 357.813 48.8573 357.813C0.720325 348.504 -7.11435 310.16 7.82676 265.81M7.82676 265.81C40.343 176.159 58.5731 125.896 91.0894 36.2452M7.82676 265.81L91.0894 36.2452" stroke="white" stroke-width="2"/>
</svg>
